<svg xmlns="http://www.w3.org/2000/svg" xmlns:xlink="http://www.w3.org/1999/xlink" version="1.1" id="Layer_1" x="0px" y="0px" width="90px" height="90px" viewBox="0 0 90 90" enable-background="new 0 0 90 90" xml:space="preserve">
<g>
	<path d="M88.848,15.457c-0.553-0.518-1.438-0.782-2.197-0.734l-15.58,1.011c-0.84-1.167-2.088-2.682-3.587-4.063   c-4.331-3.992-9.042-4.949-13.229-2.692c-3.915,2.108-5.916,5.184-6.785,8.291l-14.714,0.958   c-3.198-4.068-8.476-8.003-14.205-4.916c-2.994,1.611-4.724,3.858-5.639,6.21L2.511,20.204C1.07,20.297,0,21.494,0,22.938v47.68   c0,1.438,1.061,2.634,2.495,2.732L86.52,79.29c0.064,0.006,0.114,0.007,0.181,0.007c0.689,0,1.64-0.261,2.147-0.734   C89.404,78.043,90,77.317,90,76.557V17.458C90,16.699,89.4,15.975,88.848,15.457z M56.837,13.804   c2.605-1.406,5.325,0.328,7.37,2.373l-10.681,0.697C54.211,15.729,55.257,14.655,56.837,13.804z M21.146,18.137   c1.425-0.768,2.91-0.328,4.243,0.571l-5.607,0.365C20.173,18.737,20.62,18.421,21.146,18.137z M6,25.506l6.356-0.436   c0.048,1.104,0.054,2.128,0.276,3.005l-2.259,5.723c0,0,2.049,0.518,5.498-0.024c-1.308,2.114-1.418,4.413-1.623,6.719   l-0.062,0.611c0,0-0.023,1.2-0.024,2.144c-0.004,3.144,1.736,6.62,4.328,8.673l-0.061-0.004l-0.007,4.234l-4.395-0.335   c-0.303-0.023-0.6-0.032-0.89-0.028l-0.012-0.042c-2.581-0.195-4.484,1.206-4.972,4.245L6.75,68.14L6,68.064V25.506z    M27.201,46.768c-0.606,1.636-2.239,2.72-4.161,2.572s-3.552-1.48-4.154-3.209L27.201,46.768z M20.056,42.72l0.002-2.076   c0-0.273,0.227-0.477,0.505-0.455l0.036,0.002c0.277,0.021,0.502,0.259,0.501,0.531L21.097,42.8c0,0.273-0.225,0.477-0.503,0.455   l-0.036-0.001C20.281,43.231,20.056,42.994,20.056,42.72z M24.742,43.08l0.003-2.078c0-0.273,0.228-0.477,0.504-0.456l0.036,0.003   c0.277,0.022,0.502,0.259,0.501,0.532l-0.002,2.077c0,0.273-0.225,0.477-0.502,0.456l-0.037-0.003   C24.968,43.59,24.742,43.352,24.742,43.08z M13,66.633v1.978l-0.549-0.038L13,66.166v0.465V66.633z M32.394,69.974l0.002-1.584   l0.793,1.641L32.394,69.974z M84,73.616l-35.75-2.524l2.525-2.46c0.702,0.604,1.722,0.667,2.406,0.1l3.729-3.085   c0.754-0.623,0.385-1.394,0.107-2.562l-1.433-4.532c-0.692-0.793-1.866-0.93-2.619-0.306l-2.737,2.202l0.188-0.542   c0.236-0.685-0.149-1.465-0.861-1.75c-0.712-0.284-1.479,0.036-1.717,0.716l-1.449,4.192c-0.154,0.45-0.039,0.945,0.264,1.311   l-6.632,5.82l-2.792-7.978c-0.48-3.116-2.38-4.808-4.959-5.005l-0.012,0.032c-0.244-0.035-0.581-0.067-0.833-0.085L27,56.824V56.82   l0.022-0.005l0.051-4.172c2.562-1.55,4.309-4.551,4.312-7.667c0.002-1.017-0.178-1.728-0.512-2.52l0.018,0.002   c0.109-0.759,1.372-1.274,1.873-1.334c-0.604-0.63-1.787-0.869-2.315-1.41c-0.526-0.539-0.293-0.364,0.007-0.834   c0.655-1.025,2.182-0.807,3.144-1.223c-1.599-1.743-4.221-1.971-6.242-2.841c0.503-0.455,1.515-0.803,2.185-1.082   c-0.961-0.285-2.226-0.152-3.185-0.017c-1.361,0.19-3.427,0.543-4.583,1.223c-0.096-0.801,0.325-1.692,0.508-2.457   c-1.03,0.271-2.033,0.833-2.939,1.35c-0.811,0.462-1.798,1.421-2.633,1.686c-0.114-0.645-0.482-1.141-0.601-1.789   c0.635-0.108,1.309-0.248,2.027-0.437c4.808-1.264,6.958-3.415,6.958-3.415l-7.562-4.713c-0.012-0.145-0.021-0.296-0.028-0.45   l29.445-1.92c0.06,0.782,0.167,1.525,0.309,2.202l-2.814,7.388c0,0,3.525,0.881,9.107-0.588c5.583-1.468,8.08-3.966,8.08-3.966   l-8.676-5.425L84,20.382V73.616z"/>
	<path d="M56.227,39.599l-0.205,0.885l6.019,21.163l0.72,0.927c0.626,2.202,4.407,3.056,8.445,1.906l0.373-0.105   c4.039-1.146,6.807-3.862,6.178-6.066l0.155-1.06L71.85,35.926l-0.625-0.592c-0.626-2.203-4.406-3.056-8.447-1.908l-0.371,0.106   C58.366,34.682,55.6,37.397,56.227,39.599z M62.902,34.419c3.446-0.981,6.581-0.583,6.999,0.891c0.419,1.472-2.036,3.46-5.485,4.44   c-3.446,0.98-6.581,0.582-7-0.891S59.452,35.399,62.902,34.419z"/>
	<path d="M65.916,36.989l2.153-0.364c0.86-0.245,1.46-0.792,1.339-1.221c-0.123-0.43-0.92-0.581-1.781-0.335l-2.023,0.825   c-0.604,0.172-1.026,0.556-0.939,0.859C64.749,37.056,65.31,37.16,65.916,36.989z"/>
	<ellipse transform="matrix(0.2749 0.9615 -0.9615 0.2749 81.7445 -34.2915)" cx="63.608" cy="37.053" rx="0.288" ry="0.673"/>
</g>
</svg>