<svg xmlns="http://www.w3.org/2000/svg" xmlns:xlink="http://www.w3.org/1999/xlink" version="1.1" id="Your_Icon" x="0px" y="0px" width="100px" height="100px" viewBox="0 0 100 100" enable-background="new 0 0 100 100" xml:space="preserve">
<g>
	<path fill="#000000" d="M9,78h37V60H9V78z M12,63h31v12H12V63z"/>
	<path fill="#000000" d="M9,56h79V30H9V56z M53.607,42.675L85,33.03v19.29L53.607,42.675z M78.219,53H19.781L49,44.023L78.219,53z    M49,41.605L20.99,33h56.02L49,41.605z M43.393,42.675L12,52.32V33.03L43.393,42.675z"/>
	<rect x="55" y="68" fill="#000000" width="32" height="3"/>
	<rect x="55" y="63" fill="#000000" width="32" height="3"/>
	<rect x="55" y="73" fill="#000000" width="32" height="3"/>
	<circle fill="#000000" cx="51.526" cy="64.099" r="1.78"/>
	<circle fill="#000000" cx="51.526" cy="69.183" r="1.78"/>
	<circle fill="#000000" cx="51.526" cy="74.267" r="1.78"/>
	<path fill="#000000" d="M96,18.137C96,16.405,94.596,15,92.863,15H5.137C3.404,15,2,16.405,2,18.137v64.726   C2,84.596,3.404,86,5.137,86h87.727C94.596,86,96,84.596,96,82.863V18.137z M19.063,18.067c0.981,0,1.777,0.795,1.777,1.777   s-0.796,1.777-1.777,1.777s-1.777-0.795-1.777-1.777S18.082,18.067,19.063,18.067z M14.01,18.067c0.981,0,1.777,0.795,1.777,1.777   s-0.795,1.777-1.777,1.777s-1.777-0.795-1.777-1.777S13.029,18.067,14.01,18.067z M8.957,18.067c0.982,0,1.778,0.795,1.778,1.777   s-0.796,1.777-1.778,1.777c-0.981,0-1.776-0.795-1.776-1.777S7.976,18.067,8.957,18.067z M91,81H7V27.937v-2.119V23h21v3h63V81z"/>
</g>
</svg>