<svg xmlns="http://www.w3.org/2000/svg" xmlns:xlink="http://www.w3.org/1999/xlink" version="1.0" id="Layer_1" x="0px" y="0px" width="24px" height="26px" viewBox="0 0 24 26" style="enable-background:new 0 0 24 26;" xml:space="preserve">
<g>
	<path d="M21,0H3C1.343,0,0,1.343,0,3v23h10h4h10V3C24,1.343,22.657,0,21,0z M22,24h-8v-5h-4v5H2V3c0-0.552,0.449-1,1-1h18   c0.551,0,1,0.448,1,1V24z"/>
	<rect x="10" y="9" width="4" height="3"/>
	<rect x="10" y="14" width="4" height="3"/>
	<rect x="16" y="9" width="4" height="3"/>
	<rect x="4" y="9" width="4" height="3"/>
	<rect x="10" y="4" width="4" height="3"/>
	<rect x="16" y="4" width="4" height="3"/>
	<rect x="4" y="4" width="4" height="3"/>
	<rect x="16" y="14" width="4" height="3"/>
	<rect x="4" y="14" width="4" height="3"/>
	<rect x="16" y="19" width="4" height="3"/>
	<rect x="4" y="19" width="4" height="3"/>
</g>
</svg>