<svg xmlns="http://www.w3.org/2000/svg" xmlns:xlink="http://www.w3.org/1999/xlink" version="1.1" id="Calque_1" x="0px" y="0px" width="100px" height="100px" viewBox="0 0 100 100" enable-background="new 0 0 100 100" xml:space="preserve">
<path fill="#000000" d="M79.312,46.303c-1.586,0-2.872,1.286-2.872,2.873v20.498L43.965,87.682V47.033l14.626-8.11  c1.387-0.769,1.888-2.518,1.119-3.906c-0.771-1.387-2.518-1.888-3.904-1.119l-14.714,8.159L9.127,24.332L41.093,8.979l14.344,6.879  c1.431,0.687,3.146,0.082,3.832-1.348c0.688-1.431,0.083-3.146-1.347-3.833L42.335,3.202c-0.786-0.377-1.701-0.376-2.486,0.001  L1.629,21.559c-0.006,0.002-0.011,0.006-0.017,0.01c-0.112,0.054-0.219,0.116-0.324,0.185c-0.015,0.01-0.03,0.021-0.045,0.032  c-0.088,0.061-0.174,0.127-0.255,0.199c-0.017,0.014-0.035,0.029-0.051,0.044c-0.09,0.083-0.176,0.169-0.256,0.264  c-0.006,0.008-0.012,0.017-0.019,0.024c-0.068,0.083-0.132,0.17-0.191,0.262c-0.019,0.03-0.038,0.06-0.056,0.09  c-0.018,0.028-0.037,0.056-0.054,0.086c-0.03,0.053-0.054,0.108-0.08,0.162c-0.012,0.025-0.025,0.048-0.035,0.073  c-0.049,0.111-0.091,0.224-0.125,0.338c-0.006,0.02-0.01,0.04-0.016,0.06c-0.028,0.102-0.05,0.204-0.067,0.308  c-0.004,0.025-0.008,0.05-0.011,0.075c-0.017,0.124-0.026,0.248-0.026,0.372C0.001,24.144,0,24.146,0,24.148v47.218  c0,1.044,0.566,2.006,1.48,2.512l38.219,21.194c0.001,0,0.003,0,0.004,0c0.1,0.059,0.206,0.107,0.314,0.15  c0.018,0.008,0.036,0.013,0.054,0.021c0.086,0.032,0.174,0.062,0.265,0.085c0.028,0.009,0.057,0.016,0.085,0.023  c0.083,0.02,0.167,0.036,0.252,0.047c0.028,0.005,0.056,0.011,0.085,0.015c0.109,0.011,0.221,0.02,0.334,0.02  c0.113,0,0.224-0.009,0.333-0.02c0.029-0.004,0.057-0.01,0.085-0.015c0.085-0.011,0.17-0.027,0.252-0.047  c0.028-0.008,0.057-0.015,0.085-0.023c0.09-0.023,0.179-0.053,0.265-0.085c0.018-0.008,0.036-0.013,0.054-0.021  c0.109-0.043,0.213-0.092,0.315-0.15c0.001,0,0.003,0,0.003,0l38.219-21.194c0.913-0.506,1.48-1.468,1.48-2.512v-22.19  C82.186,47.589,80.9,46.303,79.312,46.303z M38.22,87.682L5.745,69.674V29.026L38.22,47.033V87.682z"/>
<path fill="#000000" d="M79.312,3.642c-11.308,0-20.506,9.199-20.506,20.506c0,11.307,9.198,20.506,20.506,20.506  c11.307,0,20.507-9.199,20.507-20.506C99.819,12.841,90.619,3.642,79.312,3.642z M79.312,38.909c-8.139,0-14.76-6.622-14.76-14.76  c0-8.139,6.621-14.761,14.76-14.761c8.138,0,14.761,6.622,14.761,14.761C94.073,32.287,87.45,38.909,79.312,38.909z"/>
<path fill="#000000" d="M77.006,26.089c-0.385,0.497-1.249,1.332-2.72,1.332c-1.855,0-3.255-1.407-3.255-3.273  c0-1.835,1.387-3.272,3.159-3.272c0.859,0,1.684,0.35,2.318,0.986l0.418,0.417l2.192-2.316l-0.409-0.395  c-1.176-1.138-2.774-1.765-4.503-1.765c-3.699,0-6.489,2.728-6.489,6.345s2.803,6.345,6.521,6.345c2.102,0,3.984-0.862,5.163-2.368  l0.335-0.424l-2.354-2.1L77.006,26.089z"/>
<path fill="#000000" d="M79.099,24.148c0,3.617,2.804,6.345,6.521,6.345c2.102,0,3.982-0.862,5.165-2.368l0.333-0.424l-2.353-2.1  l-0.378,0.487c-0.386,0.497-1.25,1.332-2.721,1.332c-1.855,0-3.255-1.407-3.255-3.273c0-1.835,1.387-3.272,3.159-3.272  c0.859,0,1.684,0.35,2.32,0.986l0.416,0.417l2.19-2.316l-0.407-0.395c-1.175-1.138-2.774-1.765-4.503-1.765  C81.888,17.803,79.099,20.531,79.099,24.148z"/>
</svg>