<svg xmlns="http://www.w3.org/2000/svg" xmlns:xlink="http://www.w3.org/1999/xlink" version="1.1" id="Layer_1" x="0px" y="0px" width="100.0px" height="100px" viewBox="0 0 102 102" enable-background="new 0 0 102 102" xml:space="preserve">
<path d="M51,1C23.43,1,1,23.43,1,51c0,27.569,22.43,50,50,50c27.569,0,50-22.431,50-50C101,23.43,78.569,1,51,1z M34.039,10.469  c-2.286,2.894-4.31,6.364-6,10.308c-2.148-0.736-4.269-1.549-6.334-2.489C25.327,15.039,29.487,12.381,34.039,10.469z M17.259,22.89  c2.812,1.378,5.709,2.58,8.671,3.601c-2.016,6.386-3.256,13.664-3.512,21.479H7.176C7.827,38.468,11.504,29.787,17.259,22.89z   M7.176,54.03h15.243c0.256,7.815,1.496,15.093,3.512,21.479c-2.961,1.021-5.859,2.223-8.671,3.602  C11.504,72.214,7.827,63.532,7.176,54.03z M21.704,83.712c2.065-0.94,4.187-1.753,6.334-2.488c1.691,3.944,3.714,7.414,6,10.308  C29.487,89.62,25.327,86.96,21.704,83.712z M47.97,94.514c-5.52-1.516-10.472-7.087-14.011-15.068  c4.579-1.134,9.279-1.787,14.011-1.99V94.514z M47.97,71.368c-5.467,0.218-10.894,1.02-16.169,2.381  c-1.87-5.86-3.05-12.587-3.314-19.719H47.97V71.368z M47.97,47.97H28.487c0.264-7.133,1.444-13.859,3.314-19.718  c5.276,1.36,10.702,2.162,16.169,2.379V47.97z M47.97,24.546c-4.732-0.204-9.433-0.857-14.012-1.991  c3.54-7.98,8.492-13.552,14.012-15.068V24.546z M94.824,47.97H79.582c-0.256-7.815-1.496-15.093-3.512-21.479  c2.961-1.021,5.859-2.223,8.671-3.601C90.497,29.787,94.173,38.469,94.824,47.97z M80.297,18.288  c-2.065,0.941-4.187,1.753-6.335,2.489c-1.69-3.944-3.714-7.414-6-10.308C72.513,12.381,76.674,15.039,80.297,18.288z M54.03,7.486  c5.519,1.516,10.471,7.088,14.011,15.068c-4.578,1.134-9.279,1.787-14.011,1.991V7.486z M54.03,30.631  c5.467-0.217,10.894-1.02,16.169-2.379c1.87,5.859,3.05,12.585,3.314,19.718H54.03V30.631z M54.03,54.03h19.483  c-0.265,7.132-1.444,13.858-3.314,19.719c-5.276-1.361-10.702-2.163-16.169-2.381V54.03z M54.03,94.514V77.455  c4.731,0.203,9.432,0.856,14.011,1.991C64.501,87.427,59.549,92.998,54.03,94.514z M67.962,91.531c2.286-2.894,4.31-6.363,6-10.308  c2.148,0.737,4.27,1.549,6.335,2.49C76.674,86.961,72.513,89.62,67.962,91.531z M84.741,79.109c-2.813-1.378-5.71-2.579-8.671-3.601  c2.016-6.386,3.256-13.663,3.512-21.479h15.242C94.173,63.532,90.497,72.213,84.741,79.109z"/>
</svg>