<svg xmlns="http://www.w3.org/2000/svg" xmlns:xlink="http://www.w3.org/1999/xlink" version="1.1" id="Your_Icon" x="0px" y="0px" width="100px" height="100px" viewBox="0 0 100 100" enable-background="new 0 0 100 100" xml:space="preserve">
<g>
	<path fill="#000000" d="M89.146,44.512c-1.98-1.981-4.615-3.072-7.417-3.072s-5.436,1.091-7.417,3.072   c-1.237,1.237-2.127,2.729-2.622,4.357H53.308c-1.313-4.295-5.312-7.43-10.032-7.43c-5.784,0-10.489,4.706-10.489,10.489   c0,5.785,4.705,10.491,10.489,10.491c4.72,0,8.718-3.134,10.032-7.429H71.69c0.494,1.628,1.384,3.119,2.621,4.356   c1.981,1.98,4.615,3.072,7.417,3.072s5.436-1.091,7.417-3.072c1.982-1.981,3.073-4.616,3.073-7.418S91.128,46.493,89.146,44.512z    M43.275,56.298c-2.408,0-4.368-1.96-4.368-4.37c0-2.408,1.96-4.368,4.368-4.368s4.368,1.959,4.368,4.368   C47.644,54.338,45.684,56.298,43.275,56.298z M84.818,55.018c-0.825,0.826-1.923,1.279-3.09,1.279s-2.264-0.453-3.089-1.279   c-0.825-0.824-1.28-1.922-1.28-3.089s0.455-2.263,1.281-3.089c0.825-0.825,1.921-1.279,3.088-1.279s2.264,0.455,3.09,1.28   c0.824,0.825,1.279,1.921,1.279,3.088S85.643,54.193,84.818,55.018z"/>
	<path fill="#000000" d="M81.729,69.751c-4.72,0-8.719,3.134-10.031,7.43H28.303c-1.312-4.296-5.312-7.43-10.031-7.43   c-5.785,0-10.49,4.706-10.49,10.49c0,5.785,4.705,10.491,10.49,10.491c4.72,0,8.719-3.135,10.031-7.431h43.395   c1.312,4.296,5.312,7.431,10.031,7.431c5.785,0,10.49-4.706,10.49-10.491C92.219,74.457,87.514,69.751,81.729,69.751z    M18.271,84.611c-2.409,0-4.369-1.96-4.369-4.37c0-2.408,1.96-4.368,4.369-4.368c2.408,0,4.368,1.96,4.368,4.368   C22.64,82.651,20.68,84.611,18.271,84.611z M81.729,84.611c-2.408,0-4.368-1.96-4.368-4.37c0-2.408,1.96-4.368,4.368-4.368   c2.409,0,4.369,1.96,4.369,4.368C86.098,82.651,84.138,84.611,81.729,84.611z"/>
	<path fill="#000000" d="M90.222,19.958l-9.795-9.794c-1.195-1.195-3.134-1.195-4.328,0c-1.195,1.195-1.195,3.133,0,4.328   l4.771,4.77h-41.1c-13.559,0-24.59,11.25-24.59,25.076c0,1.69,1.37,3.061,3.061,3.061s3.061-1.371,3.061-3.061   c0-10.452,8.285-18.955,18.469-18.955h40.71l-4.769,4.768c-1.195,1.196-1.195,3.133,0,4.329c0.598,0.597,1.381,0.896,2.164,0.896   s1.567-0.299,2.164-0.896l9.794-9.794c0.077-0.077,0.136-0.165,0.203-0.248c0.062-0.053,0.128-0.094,0.186-0.152   C91.418,23.091,91.418,21.153,90.222,19.958z"/>
</g>
</svg>