<svg xmlns="http://www.w3.org/2000/svg" xmlns:xlink="http://www.w3.org/1999/xlink" version="1.1" id="customize" x="0px" y="0px" viewBox="0 0 58 58" enable-background="new 0 0 58 58" xml:space="preserve" height="100px" width="100px">
<path d="M17,15v2H7v-2H17 M19,13h-2H7H5v2v2v2h2h10h2v-2v-2V13L19,13z M34,41v2H24v-2H34 M36,39h-2H24h-2v2v2v2h2h10h2v-2v-2V39  L36,39z M51,28v2H41v-2H51 M53,26h-2H41h-2v2v2v2h2h10h2v-2v-2V26L53,26z M11,53h2V21h-2V53z M11,5v6h2V5H11z M28,53h2v-6h-2V53z   M28,5v32h2V5H28z M45,53h2V34h-2V53z M45,5v19h2V5H45z"/>
</svg>