<svg xmlns="http://www.w3.org/2000/svg" xmlns:xlink="http://www.w3.org/1999/xlink" version="1.1" x="0px" y="0px" width="100px" height="100px" viewBox="0 0 100 100" enable-background="new 0 0 100 100" xml:space="preserve">
<g id="Your_Icon" display="none">
	<g display="inline">
		<path fill="#000000" d="M9,78h37V60H9V78z M12,63h31v12H12V63z"/>
		<path fill="#000000" d="M9,56h79V30H9V56z M53.607,42.675L85,33.03v19.29L53.607,42.675z M78.219,53H19.781L49,44.023L78.219,53z     M49,41.605L20.99,33h56.02L49,41.605z M43.393,42.675L12,52.32V33.03L43.393,42.675z"/>
		<rect x="55" y="68" fill="#000000" width="32" height="3"/>
		<rect x="55" y="63" fill="#000000" width="32" height="3"/>
		<rect x="55" y="73" fill="#000000" width="32" height="3"/>
		<circle fill="#000000" cx="51.525" cy="64.099" r="1.78"/>
		<circle fill="#000000" cx="51.525" cy="69.183" r="1.78"/>
		<circle fill="#000000" cx="51.525" cy="74.267" r="1.78"/>
		<path fill="#000000" d="M96,18.137C96,16.405,94.596,15,92.863,15H5.137C3.404,15,2,16.405,2,18.137v64.726    C2,84.596,3.404,86,5.137,86h87.726C94.596,86,96,84.596,96,82.863V18.137z M19.063,18.067c0.981,0,1.777,0.795,1.777,1.777    c0,0.982-0.796,1.777-1.777,1.777s-1.777-0.795-1.777-1.777C17.286,18.862,18.082,18.067,19.063,18.067z M14.01,18.067    c0.981,0,1.777,0.795,1.777,1.777c0,0.982-0.795,1.777-1.777,1.777c-0.982,0-1.777-0.795-1.777-1.777    C12.233,18.862,13.029,18.067,14.01,18.067z M8.957,18.067c0.982,0,1.778,0.795,1.778,1.777c0,0.982-0.796,1.777-1.778,1.777    c-0.981,0-1.776-0.795-1.776-1.777C7.181,18.862,7.976,18.067,8.957,18.067z M91,81H7V27.937v-2.119V23h21v3h63V81z"/>
	</g>
</g>
<g id="Layer_2">
	<g>
		<path d="M51.332,57.797h19.926V39.503H51.332V57.797z M53.354,41.526h15.882v14.249H53.354V41.526z"/>
		<path d="M48.477,39.503H28.551v18.293h19.926V39.503z M46.455,55.774H30.574V41.526h15.881V55.774z"/>
		<path d="M28.551,21.075v16.168h42.707V21.075H28.551z M46.825,29.159L30.574,34.81V23.509L46.825,29.159z M35.55,23.098h28.71    l-14.355,4.991L35.55,23.098z M49.905,30.23l14.355,4.991H35.55L49.905,30.23z M52.984,29.159l16.251-5.65V34.81L52.984,29.159z"/>
		<rect x="39.467" y="63.123" width="30.78" height="2.022"/>
		<rect x="39.467" y="70.297" width="30.78" height="2.022"/>
		<rect x="39.467" y="77.471" width="30.78" height="2.022"/>
		<circle cx="34.128" cy="64.134" r="2.513"/>
		<circle cx="34.128" cy="71.308" r="2.512"/>
		<circle cx="34.128" cy="78.482" r="2.512"/>
	</g>
	<g>
		<g>
			<path fill="none" d="M44.886,10.781h10.04c0.429,0,0.775-0.348,0.775-0.777s-0.347-0.777-0.775-0.777h-10.04     c-0.428,0-0.778,0.348-0.778,0.777S44.458,10.781,44.886,10.781z"/>
		</g>
		<g>
			<path fill="none" d="M67.183,17.371H32.627c-3.521,0-6.375,2.855-6.375,6.376v53.744c0,3.521,2.854,6.376,6.375,6.376h34.556     c3.522,0,6.377-2.855,6.377-6.376V23.748C73.56,20.226,70.705,17.371,67.183,17.371z"/>
		</g>
		<g>
			<path d="M68.835,2.509H30.974c-3.613,0-6.541,2.928-6.541,6.54v82.532c0,3.611,2.928,6.539,6.541,6.539h37.861     c3.614,0,6.542-2.928,6.542-6.539V9.049C75.377,5.438,72.449,2.509,68.835,2.509z M66.714,7.992c1.111,0,2.013,0.901,2.013,2.013     s-0.901,2.013-2.013,2.013s-2.013-0.901-2.013-2.013S65.603,7.992,66.714,7.992z M61.295,7.992c1.111,0,2.013,0.901,2.013,2.013     s-0.901,2.013-2.013,2.013s-2.013-0.901-2.013-2.013S60.184,7.992,61.295,7.992z M44.886,9.228h10.04     c0.429,0,0.775,0.348,0.775,0.777s-0.347,0.777-0.775,0.777h-10.04c-0.428,0-0.778-0.348-0.778-0.777S44.458,9.228,44.886,9.228z      M55.072,92.04c0,1.862-1.509,2.022-3.371,2.022h-3.594c-1.861,0-3.37-0.16-3.37-2.022v-1.668c0-1.861,1.509-2.022,3.37-2.022     h3.594c1.862,0,3.371,0.161,3.371,2.022V92.04z M73.56,77.491c0,3.521-2.854,6.376-6.377,6.376H32.627     c-3.521,0-6.375-2.855-6.375-6.376V23.748c0-3.521,2.854-6.376,6.375-6.376h34.556c3.522,0,6.377,2.855,6.377,6.376V77.491z"/>
		</g>
	</g>
</g>
</svg>