<svg xmlns="http://www.w3.org/2000/svg" xmlns:xlink="http://www.w3.org/1999/xlink" version="1.1" id="Layer_1" x="0px" y="0px" width="100px" height="100px" viewBox="0 0 100 100" enable-background="new 0 0 100 100" xml:space="preserve">
<g>
	<path d="M82.47,35.223c-0.209-12.535-11.018-22.671-24.273-22.671c-9.047,0-17.384,4.854-21.539,12.451   c-1.775-0.875-3.739-1.333-5.741-1.333c-6.711,0-12.208,5.043-12.519,11.354C10.005,36.789,4,43.833,4,52.071   c0,9.639,8.256,17.48,18.404,17.48h55.19C87.743,69.552,96,61.71,96,52.071C96,44.114,90.478,37.295,82.47,35.223z M77.595,67.552   h-55.19C13.359,67.552,6,60.607,6,52.071c0-7.527,5.703-13.933,13.561-15.231l0.866-0.143l-0.043-1.107   c0-5.47,4.725-9.921,10.533-9.921c1.997,0,3.949,0.539,5.645,1.558l0.936,0.562l0.479-0.98c3.633-7.445,11.57-12.256,20.221-12.256   c12.283,0,22.276,9.439,22.276,21.041c0,0.052-0.005,0.103-0.008,0.153c-0.006,0.081-0.012,0.161-0.014,0.243l-0.017,0.826   l0.807,0.173C88.754,38.598,94,44.801,94,52.071C94,60.607,86.641,67.552,77.595,67.552z"/>
	<path d="M50,36.5L50,36.5C49.999,36.5,49.999,36.5,50,36.5c-0.001,0-0.002,0-0.002,0c-11.853,0-22.263,5.256-25.905,13.079   l-0.196,0.422l0.197,0.422c3.643,7.821,14.053,13.076,25.904,13.077c0,0,0,0,0.001,0c0,0,0,0,0,0h0   c11.852,0,22.263-5.255,25.906-13.077l0.197-0.422l-0.197-0.422C72.264,41.756,61.853,36.5,50,36.5z M26.112,50.001   c2.552-5.03,8.31-8.829,15.452-10.523c-3.083,2.477-5.063,6.271-5.063,10.523c0,4.252,1.98,8.045,5.063,10.521   C34.421,58.828,28.664,55.029,26.112,50.001z M50,61.5c0,0-0.001,0-0.001,0C43.658,61.499,38.5,56.342,38.5,50.001   c0-6.341,5.158-11.5,11.498-11.501c0,0,0.001,0,0.001,0c6.341,0,11.5,5.159,11.5,11.501C61.5,56.342,56.341,61.5,50,61.5z    M58.437,60.522c3.083-2.477,5.063-6.27,5.063-10.521c0-4.253-1.981-8.047-5.064-10.523c7.143,1.695,12.9,5.494,15.452,10.523   C71.335,55.029,65.578,58.828,58.437,60.522z"/>
	<path d="M49.999,42.917c-2.273,0-4.292,1.076-5.587,2.742c0.424-0.239,0.907-0.387,1.427-0.387c1.613,0,2.923,1.308,2.923,2.922   c0,1.613-1.31,2.922-2.923,2.922c-1.371,0-2.512-0.948-2.827-2.221c-0.057,0.361-0.095,0.728-0.095,1.104   c0,3.912,3.171,7.083,7.082,7.083c3.912,0,7.084-3.171,7.084-7.083S53.911,42.917,49.999,42.917z"/>
</g>
</svg>