<svg xmlns="http://www.w3.org/2000/svg" xmlns:xlink="http://www.w3.org/1999/xlink" version="1.1" id="Your_Icon" x="0px" y="0px" width="100px" height="100px" viewBox="0 0 100 100" enable-background="new 0 0 100 100" xml:space="preserve">
<path fill="#000000" d="M90.913,15.322L78.863,1.73c0,0-7.286,5.604-14.852,5.604C56.444,7.335,50,1.73,50,1.73  s-6.445,5.604-14.011,5.604c-7.567,0-14.852-5.604-14.852-5.604L9.086,15.322c0,0,6.214,3.362,6.214,11.203  c0,7.84-5.653,9.674-5.653,26.347C9.647,83.979,50,98.27,50,98.27s40.353-14.291,40.353-45.397c0-16.673-5.653-18.507-5.653-26.347  C84.699,18.684,90.913,15.322,90.913,15.322z M41.344,67.558l-0.004-0.004l-0.004,0.004L28.684,54.904l5.142-5.142l7.515,7.514  l24.834-24.834l5.142,5.143L41.344,67.558z"/>
</svg>