<svg xmlns="http://www.w3.org/2000/svg" xmlns:xlink="http://www.w3.org/1999/xlink" version="1.1" id="Layer_1" x="0px" y="0px" width="100px" height="100px" viewBox="0 0 100 100" enable-background="new 0 0 100 100" xml:space="preserve">
<polygon points="24.043,9.231 15.158,14.875 12.196,9.692 3.385,6.453 2.615,8.547 10.663,11.507 13.272,16.073 3.744,22.126   6.203,25.998 26.503,13.103 "/>
<rect x="8.444" y="25.561" transform="matrix(-0.5362 -0.8441 0.8441 -0.5362 -8.088 48.1655)" width="1.488" height="1.487"/>
<rect x="14.229" y="36.15" transform="matrix(-0.5361 -0.8442 0.8442 -0.5361 -6.6999 70.106)" width="3.372" height="1.487"/>
<rect x="10.612" y="30.458" transform="matrix(-0.5361 -0.8442 0.8442 -0.5361 -7.4491 58.3094)" width="3.372" height="1.487"/>
<rect x="18.282" y="41.047" transform="matrix(-0.5362 -0.8441 0.8441 -0.5362 -6.0461 80.2601)" width="1.488" height="1.487"/>
<rect x="11.165" y="23.832" transform="matrix(-0.8444 0.5358 -0.5358 -0.8444 35.1311 38.9471)" width="1.487" height="1.488"/>
<rect x="16.949" y="34.422" transform="matrix(-0.5361 -0.8442 0.8442 -0.5361 -1.0615 69.7477)" width="3.372" height="1.487"/>
<rect x="14.275" y="27.787" transform="matrix(-0.8444 0.5358 -0.5358 -0.8444 43.4914 46.3124)" width="1.487" height="3.372"/>
<rect x="21.003" y="39.319" transform="matrix(-0.5362 -0.8441 0.8441 -0.5362 -0.4075 79.9011)" width="1.488" height="1.487"/>
<rect x="13.886" y="22.105" transform="matrix(0.8444 -0.5358 0.5358 0.8444 -9.9648 11.3941)" width="1.487" height="1.488"/>
<rect x="16.054" y="27.001" transform="matrix(0.5362 0.8441 -0.8441 0.5362 31.6477 -2.1055)" width="3.371" height="1.487"/>
<rect x="19.67" y="32.694" transform="matrix(-0.5362 -0.8441 0.8441 -0.5362 4.582 69.3927)" width="3.371" height="1.487"/>
<rect x="23.723" y="37.59" transform="matrix(-0.5362 -0.8441 0.8441 -0.5362 5.2311 79.5422)" width="1.488" height="1.487"/>
<rect x="16.606" y="20.376" transform="matrix(0.8444 -0.5358 0.5358 0.8444 -8.6152 12.5827)" width="1.487" height="1.488"/>
<rect x="22.391" y="30.966" transform="matrix(-0.5361 -0.8442 0.8442 -0.5361 10.2143 69.0325)" width="3.372" height="1.487"/>
<rect x="18.774" y="25.273" transform="matrix(0.5361 0.8442 -0.8442 0.5361 31.4559 -5.2018)" width="3.372" height="1.487"/>
<rect x="26.444" y="35.863" transform="matrix(-0.5362 -0.8441 0.8441 -0.5362 10.8689 79.1847)" width="1.488" height="1.487"/>
<rect x="19.327" y="18.648" transform="matrix(0.8444 -0.5358 0.5358 0.8444 -7.2657 13.7714)" width="1.487" height="1.488"/>
<rect x="21.495" y="23.545" transform="matrix(0.5361 0.8442 -0.8442 0.5361 31.2589 -8.3005)" width="3.372" height="1.487"/>
<rect x="25.111" y="29.237" transform="matrix(-0.5361 -0.8442 0.8442 -0.5361 15.8526 68.6742)" width="3.372" height="1.487"/>
<rect x="29.165" y="34.134" transform="matrix(-0.5362 -0.8441 0.8441 -0.5362 16.5076 78.8257)" width="1.488" height="1.487"/>
<rect x="22.048" y="16.919" transform="matrix(0.8444 -0.5358 0.5358 0.8444 -5.9162 14.96)" width="1.487" height="1.488"/>
<rect x="24.216" y="21.817" transform="matrix(0.5361 0.8442 -0.8442 0.5361 31.0629 -11.3988)" width="3.372" height="1.487"/>
<rect x="27.832" y="27.51" transform="matrix(-0.5361 -0.8442 0.8442 -0.5361 21.4901 68.3174)" width="3.372" height="1.487"/>
<rect x="31.884" y="32.407" transform="matrix(-0.5362 -0.8441 0.8441 -0.5362 22.1439 78.4675)" width="1.488" height="1.487"/>
<rect x="24.768" y="15.192" transform="matrix(-0.5362 -0.8441 0.8441 -0.5362 25.7422 46.0148)" width="1.488" height="1.487"/>
<rect x="26.937" y="20.088" transform="matrix(0.5362 0.8441 -0.8441 0.5362 30.86 -14.4981)" width="3.371" height="1.487"/>
<rect x="30.553" y="25.781" transform="matrix(-0.5362 -0.8441 0.8441 -0.5362 27.1353 67.9592)" width="3.371" height="1.487"/>
<rect x="34.605" y="30.678" transform="matrix(0.8444 -0.5358 0.5358 0.8444 -11.3333 23.8294)" width="1.487" height="1.488"/>
<path d="M96.332,89.557V17.294l0.149-0.223c-0.039-0.035-0.095-0.08-0.149-0.125v-0.048h-0.057c-0.894-0.722-3.45-2.464-6.977-2.263  c0.601-0.705,1.03-1.737,1.207-2.97H94v-2h-3.438c-0.208-2.62-1.51-4.523-3.207-4.523s-2.999,1.903-3.207,4.523h-7.898  c-0.208-2.62-1.51-4.523-3.207-4.523s-2.999,1.903-3.207,4.523h-7.898c-0.208-2.62-1.51-4.523-3.207-4.523s-2.999,1.903-3.207,4.523  h-7.898c-0.208-2.62-1.51-4.523-3.207-4.523s-2.999,1.903-3.207,4.523h-5.333v2h5.389c0.194,1.354,0.691,2.47,1.386,3.17  c-3.369-0.057-5.058,1.559-5.139,1.639l0.317,0.424h-0.001V88.87c-0.19,0.144-0.298,0.245-0.316,0.264l1.299,1.735  c0.071-0.066,1.775-1.615,5.443-0.926c1.239,0.232,2.139,0.61,3.009,0.976c1.061,0.445,2.044,0.858,3.319,0.858  c0.985,0,2.167-0.272,3.672-0.941l0.024,0.033c0.01-0.009,0.05-0.045,0.116-0.096c0.169-0.077,0.323-0.135,0.501-0.223  c0.595-0.295,1.17-0.508,1.725-0.664c0.813-0.145,1.832-0.183,3.102,0.057c1.239,0.232,2.139,0.61,3.009,0.976  c0.523,0.22,1.028,0.431,1.559,0.589c0.013,0.011,0.03,0.025,0.041,0.034l0.013-0.019c0.528,0.152,1.082,0.254,1.707,0.254  c0.985,0,2.167-0.272,3.672-0.941l0.024,0.033c0.01-0.009,0.051-0.045,0.116-0.096c0.17-0.077,0.323-0.135,0.501-0.223  c0.595-0.293,1.169-0.508,1.725-0.664c0.813-0.145,1.832-0.183,3.102,0.057c1.239,0.232,2.139,0.61,3.009,0.976  c0.523,0.22,1.028,0.431,1.559,0.589c0.013,0.011,0.03,0.025,0.041,0.034l0.013-0.019c0.528,0.152,1.082,0.254,1.707,0.254  c1.126,0,2.479-0.322,4.313-1.227c5.047-2.491,8.743,0.389,9.435,0.991l1.215-1.812c-0.054-0.047-0.124-0.106-0.208-0.174H96.332z   M47.568,11.666h8.01c0.192,1.34,0.681,2.45,1.364,3.152c-0.24,0.048-0.483,0.104-0.73,0.172c-1.303,0.249-2.209,0.732-2.722,1.082  c-2.702,1.204-3.813,0.769-5.536,0.046c-0.671-0.282-1.41-0.591-2.32-0.841C46.611,14.675,47.325,13.354,47.568,11.666z   M58.729,13.643c-0.328,0-0.882-0.743-1.126-1.977h2.252C59.611,12.899,59.058,13.643,58.729,13.643z M61.881,11.666h8.01  c0.215,1.496,0.805,2.692,1.616,3.367c-1.205,0.258-2.062,0.707-2.55,1.04c-1.756,0.781-2.85,0.875-3.86,0.637  c-0.801-0.603-2.383-1.591-4.513-1.955C61.234,14.05,61.694,12.963,61.881,11.666z M73.042,13.643c-0.328,0-0.882-0.743-1.126-1.977  h2.252C73.924,12.899,73.37,13.643,73.042,13.643z M76.193,11.666h8.01c0.247,1.717,0.983,3.048,1.985,3.637  c-0.377,0.141-0.759,0.301-1.149,0.493c-2.143,1.059-3.348,1.18-4.475,0.914c-0.93-0.699-2.912-1.911-5.58-2.071  C75.586,13.934,76.016,12.899,76.193,11.666z M87.354,13.643c-0.328,0-0.882-0.743-1.126-1.977h2.252  C88.236,12.899,87.683,13.643,87.354,13.643z M87.354,7.143c0.374,0,1.045,0.963,1.211,2.523h-2.422  C86.31,8.105,86.98,7.143,87.354,7.143z M73.042,7.143c0.374,0,1.045,0.963,1.211,2.523h-2.422  C71.997,8.105,72.668,7.143,73.042,7.143z M58.729,7.143c0.374,0,1.045,0.963,1.211,2.523h-2.422  C57.685,8.105,58.355,7.143,58.729,7.143z M44.417,7.143c0.374,0,1.045,0.963,1.211,2.523h-2.422  C43.372,8.105,44.043,7.143,44.417,7.143z M45.543,11.666c-0.244,1.233-0.798,1.977-1.126,1.977s-0.882-0.743-1.126-1.977H45.543z   M94.332,88.334c-2.055-1.01-5.344-1.827-9.293,0.121c-2.143,1.059-3.348,1.18-4.475,0.914c-1.281-0.964-4.559-2.913-8.885-1.72  c-1.304,0.249-2.21,0.733-2.723,1.083c-1.756,0.781-2.85,0.875-3.86,0.637c-1.28-0.964-4.559-2.914-8.885-1.72  c-1.303,0.249-2.209,0.732-2.722,1.082c-2.702,1.204-3.813,0.768-5.536,0.046c-0.913-0.384-1.947-0.818-3.375-1.086  c-2.023-0.381-3.602-0.176-4.75,0.185V17.61c0.873-0.377,2.313-0.723,4.426-0.326c1.239,0.232,2.139,0.61,3.009,0.977  c1.061,0.444,2.044,0.857,3.319,0.857c0.985,0,2.167-0.272,3.672-0.941l0.024,0.033c0.01-0.009,0.05-0.044,0.116-0.096  c0.169-0.077,0.323-0.135,0.501-0.223c0.595-0.295,1.17-0.507,1.725-0.664c0.813-0.145,1.832-0.182,3.102,0.057  c1.239,0.232,2.139,0.61,3.009,0.977c0.523,0.219,1.028,0.43,1.559,0.588c0.013,0.012,0.03,0.025,0.041,0.034l0.013-0.019  c0.528,0.152,1.082,0.254,1.707,0.254c0.985,0,2.167-0.272,3.672-0.941l0.024,0.033c0.01-0.009,0.051-0.044,0.116-0.096  c0.17-0.077,0.323-0.135,0.501-0.223c0.595-0.293,1.169-0.507,1.725-0.664c0.813-0.145,1.832-0.182,3.102,0.057  c1.239,0.232,2.139,0.61,3.009,0.977c0.523,0.219,1.028,0.43,1.559,0.588c0.013,0.012,0.03,0.025,0.041,0.034l0.013-0.019  c0.528,0.152,1.082,0.254,1.707,0.254c1.126,0,2.479-0.322,4.313-1.227c3.892-1.921,6.973-0.65,8.5,0.31V88.334z"/>
<rect x="49" y="22.221" width="2" height="61.909"/>
<rect x="63.938" y="22.221" width="2" height="61.909"/>
<rect x="78.877" y="22.221" width="2" height="61.909"/>
</svg>