<svg xmlns="http://www.w3.org/2000/svg" xmlns:xlink="http://www.w3.org/1999/xlink" version="1.1" id="Your_Icon" x="0px" y="0px" width="100px" height="100px" viewBox="0 0 100 100" enable-background="new 0 0 100 100" xml:space="preserve">
<g>
	<path d="M50.3,25.7C28.043,25.7,10,43,10,66h31.664c0.306,2,1.327,4.254,2.931,5.674c1.654,1.467,3.767,2.412,5.951,2.412   c2.443,0,4.757-1.234,6.347-3.027C58.106,69.688,58.804,68,58.956,66H90.6C90.6,43,72.557,25.7,50.3,25.7z M19.393,63.395   c-0.058,0-0.116-0.004-0.174-0.016l-6.134-1.08c-0.544-0.096-0.907-0.613-0.812-1.158c0.096-0.543,0.615-0.908,1.158-0.811   l6.134,1.08c0.544,0.096,0.907,0.615,0.812,1.158C20.292,63.053,19.87,63.395,19.393,63.395z M23.986,52.652   c-0.186,0.32-0.521,0.5-0.867,0.5c-0.169,0-0.341-0.043-0.499-0.133l-5.394-3.114c-0.478-0.276-0.642-0.888-0.366-1.366   c0.276-0.478,0.886-0.644,1.366-0.366l5.394,3.114C24.098,51.562,24.262,52.174,23.986,52.652z M30.771,44.569   c-0.188,0.157-0.416,0.233-0.643,0.233c-0.285,0-0.569-0.121-0.767-0.356l-4.004-4.771c-0.355-0.423-0.3-1.054,0.123-1.409   c0.424-0.354,1.054-0.3,1.409,0.123l4.004,4.771C31.249,43.583,31.193,44.213,30.771,44.569z M39.909,39.292   c-0.113,0.042-0.229,0.061-0.342,0.061c-0.408,0-0.792-0.252-0.939-0.658l-2.131-5.853c-0.189-0.519,0.079-1.093,0.597-1.282   c0.521-0.191,1.093,0.078,1.282,0.597l2.131,5.853C40.695,38.53,40.428,39.104,39.909,39.292z M60.096,38.012l2.13-5.853   c0.188-0.519,0.766-0.786,1.281-0.598c0.52,0.189,0.787,0.763,0.598,1.282l-2.13,5.853c-0.147,0.406-0.531,0.659-0.939,0.659   c-0.113,0-0.229-0.02-0.342-0.061C60.174,39.105,59.906,38.531,60.096,38.012z M50.3,29.233c0.553,0,1,0.447,1,1l0.002,6.228   c0,0.552-0.447,1-1,1s-1-0.447-1-1L49.3,30.234C49.3,29.682,49.747,29.233,50.3,29.233z M66.723,48.087L56.34,62.906   c1.13,2.404,0.771,5.23-0.945,7.168c-1.264,1.426-3.04,2.148-4.85,2.148c-1.63,0-3.287-0.586-4.624-1.771   c-2.822-2.5-3.163-6.742-0.761-9.451c1.235-1.395,3.017-2.145,4.856-2.145c0.717,0,1.442,0.115,2.149,0.348l13.466-12.083   c0.13-0.117,0.296-0.176,0.464-0.176c0.176,0,0.354,0.064,0.496,0.191C66.872,47.384,66.929,47.792,66.723,48.087z M75.243,39.675   l-4.002,4.772c-0.198,0.235-0.481,0.357-0.768,0.357c-0.227,0-0.454-0.077-0.642-0.234c-0.423-0.355-0.479-0.985-0.124-1.408   l4.002-4.772c0.355-0.422,0.985-0.479,1.409-0.124C75.542,38.621,75.598,39.251,75.243,39.675z M77.482,53.154   c-0.346,0-0.682-0.18-0.867-0.5c-0.276-0.479-0.112-1.09,0.366-1.367l5.393-3.114c0.476-0.277,1.089-0.112,1.366,0.366   c0.276,0.479,0.112,1.09-0.366,1.366l-5.393,3.114C77.824,53.111,77.652,53.154,77.482,53.154z M87.516,62.299l-6.133,1.082   c-0.059,0.01-0.117,0.016-0.175,0.016c-0.477,0-0.898-0.342-0.983-0.826c-0.097-0.545,0.267-1.062,0.811-1.158l6.133-1.082   c0.541-0.104,1.063,0.266,1.158,0.811C88.423,61.684,88.06,62.203,87.516,62.299z"/>
</g>
</svg>