<?xml version="1.0"?>
<svg width="356" height="356" viewBox="0 0 356 356" xmlns="http://www.w3.org/2000/svg">
<title>free share icon</title>
<path stroke-width="0" fill="#000" d="M 153.125,216.84375 C 137.94717,231.1612 117.05054,240 94,240 70.949458,240 50.052826,231.1612 34.875,216.84375 33.636971,221.68792 33,226.77007 33,232 c 0,33.68937 27.31063,61 61,61 33.68937,0 61,-27.31063 61,-61 0,-5.22993 -0.63697,-10.31208 -1.875,-15.15625 z"/>
<path stroke-width="0" fill="#000" d="M 91 63 C 48.474074 63 14 97.474074 14 140 C 14 182.52593 48.474074 217 91 217 C 115.68979 217 137.62795 205.35115 151.71875 187.28125 L 85 144 L 167.9375 137.40625 C 166.5743 96.076922 132.66093 63 91 63 z M 112 94 C 118.62742 94 124 99.372583 124 106 C 124 112.62742 118.62742 118 112 118 C 105.37258 118 100 112.62742 100 106 C 100 99.372583 105.37258 94 112 94 z "/>
<path stroke-width="0" fill="#000" d="M 320.125,216.84375 C 304.94717,231.1612 284.05054,240 261,240 237.94946,240 217.05283,231.1612 201.875,216.84375 200.63697,221.68792 200,226.77007 200,232 c 0,33.68937 27.31063,61 61,61 33.68937,0 61,-27.31063 61,-61 0,-5.22993 -0.63697,-10.31208 -1.875,-15.15625 z"/>
<path stroke-width="0" fill="#000" d="M 261 63 C 218.47407 63 184 97.474074 184 140 C 184 182.52593 218.47407 217 261 217 C 303.52593 217 338 182.52593 338 140 C 338 97.474074 303.52593 63 261 63 z M 239 98 C 245.62742 98 251 103.37258 251 110 C 251 116.62742 245.62742 122 239 122 C 232.37258 122 227 116.62742 227 110 C 227 103.37258 232.37258 98 239 98 z M 284 98 C 290.62742 98 296 103.37258 296 110 C 296 116.62742 290.62742 122 284 122 C 277.37258 122 272 116.62742 272 110 C 272 103.37258 277.37258 98 284 98 z M 207.03125 138.1875 C 217.2543 150.56704 237.58122 159 261 159 C 284.41878 159 304.7457 150.56704 314.96875 138.1875 C 314.98855 138.78995 315 139.39271 315 140 C 315 169.82338 290.82338 194 261 194 C 231.17662 194 207 169.82338 207 140 C 207 139.39271 207.01136 138.78995 207.03125 138.1875 z "/>
</svg>
