<?xml version="1.0"?>
<svg width="356" height="356" viewBox="0 0 356 356" xmlns="http://www.w3.org/2000/svg">
<title>free share icon</title>
<path stroke-width="0" fill="#fff" d="M 92 100 C 49.474074 100 15 134.47407 15 177 C 15 219.52593 49.474074 254 92 254 C 116.39306 254 138.11079 242.63634 152.21875 224.9375 L 86 182 L 168.96875 175.40625 C 168.12495 133.61192 133.9964 100 92 100 z M 114 132 C 120.62742 132 126 137.37258 126 144 C 126 150.62742 120.62742 156 114 156 C 107.37258 156 102 150.62742 102 144 C 102 137.37258 107.37258 132 114 132 z "/>
<path stroke-width="0" fill="#fff" d="M 263 100 C 220.47407 100 186 134.47407 186 177 C 186 219.52593 220.47407 254 263 254 C 305.52593 254 340 219.52593 340 177 C 340 134.47407 305.52593 100 263 100 z M 240 136 C 246.62742 136 252 141.37258 252 148 C 252 154.62742 246.62742 160 240 160 C 233.37258 160 228 154.62742 228 148 C 228 141.37258 233.37258 136 240 136 z M 286 136 C 292.62742 136 298 141.37258 298 148 C 298 154.62742 292.62742 160 286 160 C 279.37258 160 274 154.62742 274 148 C 274 141.37258 279.37258 136 286 136 z M 209.03125 175.1875 C 219.2543 187.56704 239.58122 196 263 196 C 286.41878 196 306.7457 187.56704 316.96875 175.1875 C 316.98855 175.78995 317 176.39271 317 177 C 317 206.82338 292.82338 231 263 231 C 233.17662 231 209 206.82338 209 177 C 209 176.39271 209.01136 175.78995 209.03125 175.1875 z "/>
</svg>
